# xmcd
#
# Track frame offsets:
#	150
#	16422
#	33656
#	57864
#	74297
#	93516
#	117993
#	140085
#	164290
#	183198
#	199383
#	237702
#	257652
#	290684
#	312278
#	328066
#
# Disc length: 4737 seconds
#
# Revision: 0
# Processed by: cddbd v1.5.2PL0 Copyright (c) Steve Scherf et al.
# Submitted via: EZCDAudioConverter 2.1.7.1
#
DISCID=f7127f10
DTITLE=Crowded House - North America Travelouge 3/3
DYEAR=1900
DGENRE=
TTITLE0=Kare Kare
TTITLE1=There Goes God
TTITLE2=I Walk Away/History Never Repeats
TTITLE3=I Got You
TTITLE4=Something So Strong
TTITLE5=Chocolate Cake
TTITLE6=Fingers Of Love
TTITLE7=It's Only Natural
TTITLE8=Locked Out
TTITLE9=Love You 'Til The Day I Die
TTITLE10=Weather With You/She Called Up
TTITLE11=Pineapple Head
TTITLE12=When You Come
TTITLE13=World Where You Live
TTITLE14=Italian Plastic
TTITLE15=Better Be Home Soon
EXTD=
EXTT0=
EXTT1=
EXTT2=
EXTT3=
EXTT4=
EXTT5=
EXTT6=
EXTT7=
EXTT8=
EXTT9=
EXTT10=
EXTT11=
EXTT12=
EXTT13=
EXTT14=
EXTT15=
PLAYORDER=
